<svg xmlns="http://www.w3.org/2000/svg" xmlns:xlink="http://www.w3.org/1999/xlink" version="1.1" width="1000" height="1000" viewBox="0 0 1000 1000" xml:space="preserve">
<desc>Created with Fabric.js 3.5.0</desc>
<defs>
</defs>

<g transform="matrix(3.2635 0 0 3.2635 499.9948 499.9948)" id="337266">
<g style="" vector-effect="non-scaling-stroke">
		<g transform="matrix(1 0 0 1 0 -62.78)" id="Layer_1">
<path style="stroke: none; stroke-width: 1; stroke-dasharray: none; stroke-linecap: butt; stroke-dashoffset: 0; stroke-linejoin: miter; stroke-miterlimit: 4; is-custom-font: none; font-file-url: none; fill: rgb(246,105,7); fill-rule: nonzero; opacity: 1;" transform=" translate(-139.28, -76.5)" d="M 122.16 153 h 34.24 c 29.701 0 53.38 -24.201 53.38 -53.38 c 0 -9.531 0 -36.995 0 -46.23 C 209.78 23.951 185.833 0 156.4 0 c -41.724 0 -25.524 0 -34.24 0 C 92.726 0 68.78 23.951 68.78 53.39 c 0 9.649 0 35.362 0 46.23 C 68.78 128.765 92.409 153 122.16 153 z M 156.4 15 c 19.633 0 38.38 15.029 38.38 40.35 h -17.27 c -23.715 0 -43.636 -17.179 -47.261 -40.35 H 156.4 z M 83.78 53.39 c 0 -18.277 13.016 -34.176 31.042 -37.678 c -1.752 17.775 -14.279 32.674 -31.042 37.757 V 53.39 z M 83.78 68.946 c 17.039 -3.769 31.307 -14.962 39.309 -29.903 c 10.912 18.862 31.293 31.307 54.421 31.307 h 17.27 v 29.27 c 0 21.03 -17.077 38.38 -38.38 38.38 h -34.24 c -21.37 0 -38.38 -17.402 -38.38 -38.38 V 68.946 z" stroke-linecap="round"/>
</g>
		<g transform="matrix(1 0 0 1 0 81.4276)" id="Layer_1">
<path style="stroke: none; stroke-width: 1; stroke-dasharray: none; stroke-linecap: butt; stroke-dashoffset: 0; stroke-linejoin: miter; stroke-miterlimit: 4; is-custom-font: none; font-file-url: none; fill: rgb(246,105,7); fill-rule: nonzero; opacity: 1;" transform=" translate(-139.28, -220.7076)" d="M 170.109 166.663 c -0.003 -0.001 -0.005 -0.002 -0.008 -0.003 c -0.003 -0.001 -0.007 -0.002 -0.01 -0.003 c -18.722 -5.07 -42.913 -5.069 -61.632 0.003 c -0.003 0.001 -0.005 0.002 -0.008 0.003 C 61.429 179.364 28.59 222.291 28.59 271.06 c 0 4.142 3.358 7.5 7.5 7.5 c 4.472 0 201.908 0 206.38 0 c 4.142 0 7.5 -3.358 7.5 -7.5 C 249.97 222.269 217.131 179.342 170.109 166.663 z M 105.773 254.167 l 11.899 9.393 h -73.78 c 3.018 -37.395 28.402 -69.64 64.249 -81.168 l 10.091 10.627 l -15.03 53.223 C 102.378 249.16 103.392 252.288 105.773 254.167 z M 139.28 261.505 l -20.281 -16.008 l 14.829 -52.509 c 0.719 -2.546 0.043 -5.284 -1.779 -7.203 l -6.74 -7.098 c 9.083 -1.089 18.859 -1.09 27.941 0.001 l -6.739 7.097 c -1.822 1.919 -2.499 4.656 -1.779 7.203 l 14.829 52.509 L 139.28 261.505 z M 160.888 263.559 l 11.898 -9.392 c 2.381 -1.879 3.395 -5.007 2.571 -7.925 l -15.03 -53.223 c 7.786 -8.2 5.478 -5.769 10.092 -10.629 c 35.848 11.511 61.233 43.755 64.248 81.169 H 160.888 z" stroke-linecap="round"/>
</g>
</g>
</g>
</svg>