<?xml version="1.0" encoding="utf-8"?>
<svg id="master-artboard" viewBox="0 0 1400 980" version="1.1" xmlns="http://www.w3.org/2000/svg" x="0px" y="0px" style="enable-background:new 0 0 1400 980;" width="1400px" height="980px"><defs><style id="ee-google-fonts">@import url(https://fonts.googleapis.com/css?family=Fjalla+One:400|Roboto:100,100italic,300,300italic,400,400italic,500,500italic,700,700italic,900,900italic);</style></defs>











































<g transform="matrix(0.9999999999999999, 0, 0, 0.9999999999999999, 1.8189894035458565e-12, 4.547473508864641e-13)">
		<path class="st13" d="M448.4,599.9" style="fill: rgb(223, 243, 251);"/>
	</g>





















































<g transform="matrix(3.6115184809971694, 0, 0, 3.6115184809971694, 210.00008496493865, 5.684341886080802e-14)"><g>
</g><g>
</g><g>
</g><g>
</g><g>
</g><g>
</g><g>
</g><g>
</g><g>
</g><g>
</g><g>
</g><g>
</g><g>
</g><g>
</g><g>
</g></g><g transform="matrix(6.044979723875754, 0, 0, 6.044979723875754, 210.00008496493865, 5.684341886080802e-14)"><g>
	<g>
		<path d="M77.941,6.235C34.894,6.235,0,41.12,0,84.176c0,43.057,34.894,77.941,77.941,77.941c21.525,0,41.017-8.72,55.119-22.828&#10;&#9;&#9;&#9;L77.941,84.176V6.235z" style="fill: rgb(246, 105, 7);"/>
		<path d="M84.177,0v77.941h77.941C162.118,34.885,127.228,0,84.177,0z" style="fill: rgb(246, 105, 7);"/>
	</g>
</g><g>
</g><g>
</g><g>
</g><g>
</g><g>
</g><g>
</g><g>
</g><g>
</g><g>
</g><g>
</g><g>
</g><g>
</g><g>
</g><g>
</g><g>
</g></g></svg>